<svg viewBox="0 0 376 91" fill="none" xmlns="http://www.w3.org/2000/svg">
<rect x="0.828125" width="199.029" height="90.7253" fill="#55E6A5"/>
<path fill-rule="evenodd" clip-rule="evenodd" d="M166.167 11.9688H158.651L137.92 58.6577L151.447 45.1314L166.167 11.9688ZM164.6 31.9775L184.609 11.9688H173.482L164.6 31.9775ZM149.012 11.9688H151.334L124.759 71.8186L117.825 78.7527H114.175L143.82 11.9688H149.012ZM136.505 11.9688H128.989L117.662 37.4853H123.496L113.006 47.9745L99.3442 78.7527H106.86L136.505 11.9688ZM114.17 11.9688H121.674L110.347 37.4853H102.841L114.17 11.9688ZM86.345 74.6358L99.8524 61.1284L92.0292 78.7527H84.517L86.345 74.6358ZM106.853 11.9688H105.855H99.3267L85.064 44.0999L91.6787 37.4853H95.5234L106.853 11.9688ZM84.0924 11.9688H92.0116L71.9102 57.2537L57.6698 71.4941L84.0924 11.9688ZM76.7774 11.9688H69.2613L39.608 78.7527H47.1328L76.7774 11.9688ZM54.4303 11.9688H61.9441L50.6143 37.4853H43.1038L54.4303 11.9688ZM31.7392 63.0877L45.2418 49.5851L32.2908 78.7527H24.7857L31.7392 63.0877ZM47.1152 11.9688H41.5907L38.0095 15.5499L28.2727 37.4853H35.7888L47.1152 11.9688ZM18.5853 76.2416L16.0742 78.7527H17.4707L18.5853 76.2416ZM16.0742 37.4853L24.8557 28.7038L20.9577 37.4853H16.0742Z" fill="#141C27"/>
<path d="M166.167 11.9688L166.624 12.1716L166.936 11.4688H166.167V11.9688ZM158.651 11.9688V11.4688H158.326L158.194 11.7658L158.651 11.9688ZM137.92 58.6577L137.463 58.4548L138.274 59.0113L137.92 58.6577ZM151.447 45.1314L151.8 45.4849L151.866 45.4192L151.904 45.3342L151.447 45.1314ZM164.6 31.9775L164.143 31.7747L164.954 32.3311L164.6 31.9775ZM184.609 11.9688L184.963 12.3223L185.816 11.4688H184.609V11.9688ZM173.482 11.9688V11.4688H173.157L173.025 11.7659L173.482 11.9688ZM151.334 11.9688L151.791 12.1717L152.103 11.4688H151.334V11.9688ZM124.759 71.8186L125.113 72.1721L125.179 72.1064L125.216 72.0215L124.759 71.8186ZM117.825 78.7527V79.2527H118.032L118.179 79.1062L117.825 78.7527ZM114.175 78.7527L113.718 78.5498L113.406 79.2527H114.175V78.7527ZM143.82 11.9688V11.4688H143.495L143.363 11.7659L143.82 11.9688ZM128.989 11.9688V11.4688H128.664L128.532 11.7659L128.989 11.9688ZM136.505 11.9688L136.962 12.1716L137.274 11.4688H136.505V11.9688ZM117.662 37.4853L117.205 37.2824L116.893 37.9853H117.662V37.4853ZM123.496 37.4853L123.849 37.8388L124.703 36.9853H123.496V37.4853ZM113.006 47.9745L112.653 47.621L112.587 47.6867L112.549 47.7717L113.006 47.9745ZM99.3442 78.7527L98.8872 78.5498L98.5753 79.2527H99.3442V78.7527ZM106.86 78.7527V79.2527H107.185L107.317 78.9555L106.86 78.7527ZM121.674 11.9688L122.131 12.1716L122.443 11.4688H121.674V11.9688ZM114.17 11.9688V11.4688H113.845L113.713 11.7658L114.17 11.9688ZM110.347 37.4853V37.9853H110.672L110.804 37.6881L110.347 37.4853ZM102.841 37.4853L102.384 37.2823L102.071 37.9853H102.841V37.4853ZM99.8524 61.1284L100.309 61.3312L99.4989 60.7748L99.8524 61.1284ZM86.345 74.6358L85.9914 74.2823L85.9257 74.348L85.888 74.4329L86.345 74.6358ZM92.0292 78.7527V79.2527H92.3543L92.4862 78.9555L92.0292 78.7527ZM84.517 78.7527L84.06 78.5498L83.7479 79.2527H84.517V78.7527ZM106.853 11.9688L107.31 12.1717L107.622 11.4688H106.853V11.9688ZM99.3267 11.9688V11.4688H99.0016L98.8697 11.7659L99.3267 11.9688ZM85.064 44.0999L84.607 43.897L85.4176 44.4534L85.064 44.0999ZM91.6787 37.4853V36.9853H91.4716L91.3251 37.1317L91.6787 37.4853ZM95.5234 37.4853V37.9853H95.8484L95.9803 37.6882L95.5234 37.4853ZM92.0116 11.9688L92.4686 12.1716L92.7806 11.4688H92.0116V11.9688ZM84.0924 11.9688V11.4688H83.7673L83.6354 11.7659L84.0924 11.9688ZM71.9102 57.2537L72.2637 57.6073L72.3295 57.5416L72.3672 57.4566L71.9102 57.2537ZM57.6698 71.4941L57.2128 71.2912L58.0234 71.8476L57.6698 71.4941ZM69.2613 11.9688V11.4688H68.9363L68.8043 11.7658L69.2613 11.9688ZM76.7774 11.9688L77.2344 12.1716L77.5464 11.4688H76.7774V11.9688ZM39.608 78.7527L39.151 78.5498L38.8389 79.2527H39.608V78.7527ZM47.1328 78.7527V79.2527H47.4579L47.5898 78.9555L47.1328 78.7527ZM61.9441 11.9688L62.4011 12.1717L62.7132 11.4688H61.9441V11.9688ZM54.4303 11.9688V11.4688H54.1052L53.9733 11.7659L54.4303 11.9688ZM50.6143 37.4853V37.9853H50.9394L51.0713 37.6882L50.6143 37.4853ZM43.1038 37.4853L42.6468 37.2824L42.3348 37.9853H43.1038V37.4853ZM45.2418 49.5851L45.6987 49.7881L44.8882 49.2316L45.2418 49.5851ZM31.7392 63.0877L31.3856 62.7342L31.3199 62.7999L31.2822 62.8849L31.7392 63.0877ZM32.2908 78.7527V79.2527H32.6159L32.7478 78.9556L32.2908 78.7527ZM24.7857 78.7527L24.3287 78.5498L24.0167 79.2527H24.7857V78.7527ZM41.5907 11.9688V11.4688H41.3836L41.2372 11.6152L41.5907 11.9688ZM47.1152 11.9688L47.5722 12.1716L47.8842 11.4688H47.1152V11.9688ZM38.0095 15.5499L37.656 15.1964L37.5902 15.2621L37.5525 15.3471L38.0095 15.5499ZM28.2727 37.4853L27.8157 37.2824L27.5037 37.9853H28.2727V37.4853ZM35.7888 37.4853V37.9853H36.1139L36.2458 37.6881L35.7888 37.4853ZM16.0742 78.7527L15.7207 78.3991L14.8671 79.2527H16.0742V78.7527ZM18.5853 76.2416L19.0423 76.4444L18.2318 75.888L18.5853 76.2416ZM17.4707 78.7527V79.2527H17.7958L17.9277 78.9555L17.4707 78.7527ZM24.8557 28.7038L25.3127 28.9067L24.5021 28.3502L24.8557 28.7038ZM16.0742 37.4853L15.7207 37.1317L14.8671 37.9853H16.0742V37.4853ZM20.9577 37.4853V37.9853H21.2828L21.4147 37.6881L20.9577 37.4853ZM166.167 11.4688H158.651V12.4688H166.167V11.4688ZM158.194 11.7658L137.463 58.4548L138.377 58.8606L159.108 12.1717L158.194 11.7658ZM138.274 59.0113L151.8 45.4849L151.093 44.7778L137.567 58.3042L138.274 59.0113ZM151.904 45.3342L166.624 12.1716L165.71 11.7659L150.99 44.9285L151.904 45.3342ZM164.954 32.3311L184.963 12.3223L184.256 11.6152L164.247 31.624L164.954 32.3311ZM184.609 11.4688H173.482V12.4688H184.609V11.4688ZM173.025 11.7659L164.143 31.7747L165.057 32.1804L173.939 12.1716L173.025 11.7659ZM151.334 11.4688H149.012V12.4688H151.334V11.4688ZM125.216 72.0215L151.791 12.1717L150.877 11.7658L124.302 71.6156L125.216 72.0215ZM118.179 79.1062L125.113 72.1721L124.406 71.465L117.472 78.3991L118.179 79.1062ZM114.175 79.2527H117.825V78.2527H114.175V79.2527ZM143.363 11.7659L113.718 78.5498L114.632 78.9555L144.277 12.1716L143.363 11.7659ZM149.012 11.4688H143.82V12.4688H149.012V11.4688ZM128.989 12.4688H136.505V11.4688H128.989V12.4688ZM118.119 37.6881L129.446 12.1716L128.532 11.7659L117.205 37.2824L118.119 37.6881ZM123.496 36.9853H117.662V37.9853H123.496V36.9853ZM113.36 48.3281L123.849 37.8388L123.142 37.1317L112.653 47.621L113.36 48.3281ZM99.8012 78.9555L113.463 48.1774L112.549 47.7717L98.8872 78.5498L99.8012 78.9555ZM106.86 78.2527H99.3442V79.2527H106.86V78.2527ZM136.048 11.7659L106.403 78.5498L107.317 78.9555L136.962 12.1716L136.048 11.7659ZM121.674 11.4688H114.17V12.4688H121.674V11.4688ZM110.804 37.6881L122.131 12.1716L121.217 11.7659L109.89 37.2824L110.804 37.6881ZM102.841 37.9853H110.347V36.9853H102.841V37.9853ZM113.713 11.7658L102.384 37.2823L103.298 37.6882L114.627 12.1717L113.713 11.7658ZM99.4989 60.7748L85.9914 74.2823L86.6986 74.9894L100.206 61.4819L99.4989 60.7748ZM92.4862 78.9555L100.309 61.3312L99.3954 60.9255L91.5722 78.5498L92.4862 78.9555ZM84.517 79.2527H92.0292V78.2527H84.517V79.2527ZM85.888 74.4329L84.06 78.5498L84.974 78.9556L86.802 74.8387L85.888 74.4329ZM105.855 12.4688H106.853V11.4688H105.855V12.4688ZM99.3267 12.4688H105.855V11.4688H99.3267V12.4688ZM85.521 44.3028L99.7837 12.1716L98.8697 11.7659L84.607 43.897L85.521 44.3028ZM91.3251 37.1317L84.7105 43.7463L85.4176 44.4534L92.0322 37.8388L91.3251 37.1317ZM95.5234 36.9853H91.6787V37.9853H95.5234V36.9853ZM106.396 11.7658L95.0664 37.2823L95.9803 37.6882L107.31 12.1717L106.396 11.7658ZM92.0116 11.4688H84.0924V12.4688H92.0116V11.4688ZM72.3672 57.4566L92.4686 12.1716L91.5546 11.7659L71.4532 57.0509L72.3672 57.4566ZM58.0234 71.8476L72.2637 57.6073L71.5566 56.9002L57.3163 71.1405L58.0234 71.8476ZM83.6354 11.7659L57.2128 71.2912L58.1268 71.6969L84.5494 12.1716L83.6354 11.7659ZM69.2613 12.4688H76.7774V11.4688H69.2613V12.4688ZM40.065 78.9556L69.7183 12.1717L68.8043 11.7658L39.151 78.5498L40.065 78.9556ZM47.1328 78.2527H39.608V79.2527H47.1328V78.2527ZM76.3204 11.7659L46.6758 78.5498L47.5898 78.9555L77.2344 12.1716L76.3204 11.7659ZM61.9441 11.4688H54.4303V12.4688H61.9441V11.4688ZM51.0713 37.6882L62.4011 12.1717L61.4872 11.7658L50.1574 37.2823L51.0713 37.6882ZM43.1038 37.9853H50.6143V36.9853H43.1038V37.9853ZM53.9733 11.7659L42.6468 37.2824L43.5608 37.6881L54.8873 12.1716L53.9733 11.7659ZM44.8882 49.2316L31.3856 62.7342L32.0927 63.4413L45.5953 49.9387L44.8882 49.2316ZM32.7478 78.9556L45.6987 49.7881L44.7848 49.3822L31.8339 78.5498L32.7478 78.9556ZM24.7857 79.2527H32.2908V78.2527H24.7857V79.2527ZM31.2822 62.8849L24.3287 78.5498L25.2427 78.9555L32.1962 63.2906L31.2822 62.8849ZM41.5907 12.4688H47.1152V11.4688H41.5907V12.4688ZM38.3631 15.9035L41.9443 12.3223L41.2372 11.6152L37.656 15.1964L38.3631 15.9035ZM28.7297 37.6881L38.4665 15.7528L37.5525 15.3471L27.8157 37.2824L28.7297 37.6881ZM35.7888 36.9853H28.2727V37.9853H35.7888V36.9853ZM46.6582 11.7659L35.3318 37.2824L36.2458 37.6881L47.5722 12.1716L46.6582 11.7659ZM16.4278 79.1062L18.9389 76.5951L18.2318 75.888L15.7207 78.3991L16.4278 79.1062ZM17.4707 78.2527H16.0742V79.2527H17.4707V78.2527ZM18.1283 76.0387L17.0137 78.5498L17.9277 78.9555L19.0423 76.4444L18.1283 76.0387ZM24.5021 28.3502L15.7207 37.1317L16.4278 37.8388L25.2092 29.0574L24.5021 28.3502ZM21.4147 37.6881L25.3127 28.9067L24.3987 28.5009L20.5007 37.2824L21.4147 37.6881ZM16.0742 37.9853H20.9577V36.9853H16.0742V37.9853ZM123.849 37.8388L126.875 34.8127L126.168 34.1056L123.142 37.1317L123.849 37.8388ZM140.029 21.6589L149.366 12.3223L148.658 11.6152L139.322 20.9518L140.029 21.6589ZM58.7562 36.7779L72.2773 23.2567L71.5702 22.5496L58.049 36.0708L58.7562 36.7779Z" fill="black"/>
<path d="M207.517 30.9091L209.136 21.3636H247.062L245.443 30.9091H232.318L226.693 65H215.017L220.642 30.9091H207.517ZM250.104 65H237.32L258.968 21.3636H275.161L282.32 65H269.536L265.275 33.3807H264.934L250.104 65ZM250.615 47.7841H274.65L273.115 56.6477H249.081L250.615 47.7841ZM331.523 21.3636L324.278 65H314.392L302.46 42.0739H302.205L298.369 65H286.523L293.767 21.3636H303.824L315.585 44.2045H315.926L319.676 21.3636H331.523ZM363.078 35.767C363.021 35.0142 362.865 34.3537 362.609 33.7855C362.354 33.2031 361.991 32.7131 361.523 32.3153C361.054 31.9034 360.472 31.598 359.776 31.3991C359.094 31.1861 358.291 31.0795 357.368 31.0795C355.379 31.0795 353.568 31.5554 351.935 32.5071C350.301 33.4588 348.93 34.8295 347.822 36.6193C346.729 38.4091 345.976 40.5682 345.564 43.0966C345.138 45.6534 345.102 47.8409 345.457 49.6591C345.813 51.4773 346.58 52.8693 347.759 53.8352C348.952 54.8011 350.564 55.2841 352.595 55.2841C354.413 55.2841 355.983 55.0213 357.304 54.4957C358.625 53.9702 359.683 53.2244 360.479 52.2585C361.274 51.2926 361.771 50.1562 361.97 48.8494L364.016 49.0625H354.044L355.408 40.625H374.754L373.774 46.6761C373.121 50.6534 371.714 54.0554 369.555 56.8821C367.411 59.6946 364.74 61.8537 361.544 63.3594C358.348 64.8509 354.839 65.5966 351.018 65.5966C346.786 65.5966 343.213 64.6946 340.301 62.8906C337.389 61.0866 335.308 58.5156 334.058 55.1776C332.822 51.8395 332.581 47.8693 333.334 43.267C333.93 39.6591 335.01 36.4631 336.572 33.679C338.149 30.8949 340.074 28.544 342.347 26.6264C344.619 24.6946 347.126 23.2386 349.868 22.2585C352.609 21.2642 355.45 20.767 358.391 20.767C360.962 20.767 363.298 21.1364 365.401 21.875C367.503 22.5994 369.3 23.6364 370.791 24.9858C372.283 26.321 373.398 27.9048 374.136 29.7372C374.889 31.5696 375.195 33.5795 375.053 35.767H363.078Z" fill="white"/>
</svg>

